HIERARCHY
ROOT Pelvis
{
	OFFSET 0.000000 0.000000 0.000000
	CHANNELS 6 Xposition Yposition Zposition Xrotation Yrotation Zrotation
	JOINT LeftUpLeg_virtual
	{
		OFFSET 0.000000 0.000000 0.000000
		CHANNELS 3 Xrotation Yrotation Zrotation
		JOINT LeftUpLeg
		{
			OFFSET 18.735201 -5.666702 -4.541200
			CHANNELS 3 Xrotation Yrotation Zrotation
			JOINT LeftLeg
			{
				OFFSET -0.021200 -31.938179 0.493100
				CHANNELS 3 Xrotation Yrotation Zrotation
				JOINT LeftFoot
				{
					OFFSET 0.021200 -31.938179 -4.336299
					CHANNELS 3 Xrotation Yrotation Zrotation
					JOINT LeftToeBase
					{
						OFFSET 0.943001 -26.722000 15.023500
						CHANNELS 3 Xrotation Yrotation Zrotation
						End Site
						{
							OFFSET 0 0 0
						}
					}
				}
			}
		}
	}
	JOINT RightUpLeg_virtual
	{
		OFFSET 0.000000 0.000000 0.000000
		CHANNELS 3 Xrotation Yrotation Zrotation
		JOINT RightUpLeg
		{
			OFFSET -18.735201 -5.666702 -4.541200
			CHANNELS 3 Xrotation Yrotation Zrotation
			JOINT RightLeg
			{
				OFFSET 0.018946 -31.938133 0.493100
				CHANNELS 3 Xrotation Yrotation Zrotation
				JOINT RightFoot
				{
					OFFSET -0.018946 -31.938126 -4.336299
					CHANNELS 3 Xrotation Yrotation Zrotation
					JOINT RightToeBase
					{
						OFFSET -0.943001 -26.722004 15.023500
						CHANNELS 3 Xrotation Yrotation Zrotation
						End Site
						{
							OFFSET 0 0 0
						}
					}
				}
			}
		}
	}
	JOINT Hips_virtual
	{
		OFFSET 0.000000 0.000000 0.000000
		CHANNELS 3 Xrotation Yrotation Zrotation
		JOINT Hips
		{
			OFFSET -0.000000 -0.000000 -0.000000
			CHANNELS 3 Xrotation Yrotation Zrotation
			JOINT Spine
			{
				OFFSET 0.000000 10.199997 -0.299500
				CHANNELS 3 Xrotation Yrotation Zrotation
				JOINT Spine1
				{
					OFFSET 0.000000 11.900002 -1.516600
					CHANNELS 3 Xrotation Yrotation Zrotation
					JOINT Spine2
					{
						OFFSET 0.000000 13.600006 -2.842500
						CHANNELS 3 Xrotation Yrotation Zrotation
						JOINT Neck_virtual
						{
							OFFSET 0.000000 0.000000 0.000000
							CHANNELS 3 Xrotation Yrotation Zrotation
							JOINT Neck
							{
								OFFSET 0.000000 9.624100 -2.890100
								CHANNELS 3 Xrotation Yrotation Zrotation
								JOINT Head
								{
									OFFSET 0.000000 14.068802 -1.351900
									CHANNELS 3 Xrotation Yrotation Zrotation
									End Site
									{
										OFFSET 0 0 0
									}
								}
							}
						}
						JOINT LeftShoulder_virtual
						{
							OFFSET 0.000000 0.000000 0.000000
							CHANNELS 3 Xrotation Yrotation Zrotation
							JOINT LeftShoulder
							{
								OFFSET 15.263000 10.923401 -0.547700
								CHANNELS 3 Xrotation Yrotation Zrotation
								JOINT LeftArm
								{
									OFFSET 25.438599 -2.830597 -13.032500
									CHANNELS 3 Xrotation Yrotation Zrotation
									JOINT LeftForeArm
									{
										OFFSET 29.960503 0.000000 0.000000
										CHANNELS 3 Xrotation Yrotation Zrotation
										JOINT LeftHand
										{
											OFFSET 27.849251 0.000000 0.000000
											CHANNELS 3 Xrotation Yrotation Zrotation
											End Site
											{
												OFFSET 0 0 0
											}
										}
									}
								}
							}
						}
						JOINT RightShoulder_virtual
						{
							OFFSET 0.000000 0.000000 0.000000
							CHANNELS 3 Xrotation Yrotation Zrotation
							JOINT RightShoulder
							{
								OFFSET -15.263000 10.923401 -0.547700
								CHANNELS 3 Xrotation Yrotation Zrotation
								JOINT RightArm
								{
									OFFSET -25.438599 -2.830597 -13.032500
									CHANNELS 3 Xrotation Yrotation Zrotation
									JOINT RightForeArm
									{
										OFFSET -29.960503 0.000000 0.000000
										CHANNELS 3 Xrotation Yrotation Zrotation
										JOINT RightHand
										{
											OFFSET -27.849251 0.000000 0.000000
											CHANNELS 3 Xrotation Yrotation Zrotation
											End Site
											{
												OFFSET 0 0 0
											}
										}
									}
								}
							}
						}
					}
				}
			}
		}
	}
}
MOTION
Frames: 6
Frame Time: 0.03333333
-2.502603 80.375252 2.717976 0.000000 0.000000 0.000000 -5.066611 -42.370307 0.336365 -36.917063 3.270017 21.340574 62.505875 -8.150104 4.188497 -22.902475 -6.714141 -18.587424 0.000000 0.000000 0.000000 -5.066611 -42.370307 0.336365 -21.072107 -9.197362 -32.290566 63.676576 -7.115154 -7.523104 -31.485222 -9.751354 26.477529 0.000000 0.000000 0.000000 -5.066611 -42.370307 0.336365 0.000000 0.000001 0.000000 9.462086 7.035265 -1.694401 2.187715 0.989894 -0.914786 0.000000 0.000000 0.000000 2.202831 0.982770 -0.893560 2.650043 3.452590 -0.064172 0.000000 0.000000 0.000000 2.202831 0.982770 -0.893560 1.117177 3.546351 -8.633310 -53.487013 4.935509 -51.502983 -179.999349 -73.641952 -179.999363 0.000000 0.000000 0.000000 2.202831 0.982770 -0.893560 3.036125 13.027199 -5.371406 -48.713722 27.172834 83.457071 -179.999445 74.011725 179.999459 0.000000 0.000000 0.000000 
-2.510795 80.422440 2.780403 0.000000 0.000000 0.000000 -4.921077 -42.380026 0.247284 -37.002755 3.226903 21.782390 62.500582 -8.078399 3.829510 -22.966489 -6.971969 -18.470647 0.000000 0.000000 0.000000 -4.921077 -42.380026 0.247284 -21.198100 -9.598198 -32.378836 63.414133 -6.650640 -7.366733 -31.427545 -9.648245 26.104261 0.000000 0.000000 0.000000 -4.921077 -42.380026 0.247284 0.000000 0.000000 0.000000 9.419280 7.097654 -1.732404 2.160458 1.014517 -0.917778 0.000000 0.000000 0.000000 2.175226 1.007283 -0.896828 2.610275 3.469266 -0.093782 0.000000 0.000000 0.000000 2.175226 1.007283 -0.896828 1.001849 3.254860 -7.754999 -53.008944 4.373915 -50.549287 -179.999896 -73.314404 -179.999896 0.000000 0.000000 0.000000 2.175226 1.007283 -0.896828 2.949119 12.677378 -5.252450 -49.612694 28.281049 83.025867 -179.999786 74.211344 179.999773 0.000000 0.000000 0.000000 
-2.534048 80.517090 2.911316 0.000000 0.000000 0.000000 -4.748506 -42.581213 0.205650 -36.953769 3.435968 22.242714 62.432840 -8.583205 3.467197 -23.052901 -6.767410 -18.044175 0.000000 0.000000 0.000000 -4.748506 -42.581213 0.205650 -21.175888 -9.620999 -32.482266 63.089030 -5.860727 -6.871312 -31.308576 -9.798239 25.459878 0.000000 0.000000 0.000000 -4.748506 -42.581213 0.205650 0.000000 0.000002 0.000000 9.338598 7.063705 -1.803910 2.116462 1.001628 -0.938757 0.000000 0.000000 0.000000 2.131452 0.993923 -0.918455 2.540539 3.505934 -0.130532 0.000000 0.000000 0.000000 2.131452 0.993923 -0.918455 0.882105 2.965727 -6.781120 -52.480315 4.371682 -50.014747 -179.999404 -72.505668 -179.999404 0.000000 0.000000 0.000000 2.131452 0.993923 -0.918455 2.865110 12.349319 -5.101035 -50.475156 29.672893 82.603830 -179.999814 74.347770 179.999814 0.000000 0.000000 0.000000 
-2.555001 80.674561 3.128117 0.000000 0.000000 0.000000 -4.532085 -43.091971 0.242552 -36.697080 4.058279 22.750581 62.239341 -9.417980 3.095875 -23.237050 -6.220668 -17.370768 0.000000 0.000000 0.000000 -4.532085 -43.091971 0.242552 -21.181072 -9.333947 -32.660694 62.608137 -4.816608 -6.240579 -31.032036 -10.001274 24.694242 0.000000 0.000000 0.000000 -4.532085 -43.091971 0.242552 0.000000 0.000003 0.000000 9.208568 6.972765 -1.928306 2.049153 0.967099 -0.982517 0.000000 0.000000 0.000000 2.064604 0.958723 -0.963082 2.438915 3.565066 -0.170179 0.000000 0.000000 0.000000 2.064604 0.958723 -0.963082 0.760002 2.691018 -5.709707 -51.890979 4.777273 -49.666762 -179.999991 -71.344871 -179.999991 0.000000 0.000000 0.000000 2.064604 0.958723 -0.963082 2.789647 12.065802 -4.922059 -51.267984 31.359055 82.088130 179.999377 74.448775 -179.999377 0.000000 0.000000 0.000000 
-2.566767 80.890724 3.430027 0.000000 0.000000 0.000000 -4.275605 -44.078079 0.347092 -36.127032 5.078137 23.345233 61.903309 -10.363414 2.643864 -23.601399 -5.401624 -16.537814 0.000000 0.000000 0.000000 -4.275605 -44.078079 0.347092 -21.407275 -8.745046 -32.909918 61.962964 -3.702193 -5.666301 -30.529351 -9.977443 23.964740 0.000000 0.000000 0.000000 -4.275605 -44.078079 0.347092 0.000000 0.000000 0.000000 9.024936 6.885257 -2.103544 1.956325 0.934494 -1.039520 0.000000 0.000000 0.000000 1.971919 0.925408 -1.021210 2.315671 3.639754 -0.221061 0.000000 0.000000 0.000000 1.971919 0.925408 -1.021210 0.637437 2.468935 -4.579882 -51.272939 5.449258 -49.266926 179.999909 -69.923235 179.999909 0.000000 0.000000 0.000000 1.971919 0.925408 -1.021210 2.719009 11.806952 -4.709301 -52.079448 33.374811 81.488801 -179.999377 74.627494 179.999377 0.000000 0.000000 0.000000 
-2.555629 81.138351 3.814240 0.000000 0.000000 0.000000 -4.063458 -45.675661 0.495223 -35.103819 6.503262 23.935607 61.465043 -11.411565 2.105395 -24.237729 -4.151625 -15.533276 0.000000 0.000000 0.000000 -4.063458 -45.675661 0.495223 -21.892799 -7.678232 -33.201898 61.261114 -2.526133 -5.220635 -29.781387 -9.752381 23.336248 0.000000 0.000000 0.000000 -4.063458 -45.675661 0.495223 0.000000 0.000003 0.000000 8.840287 6.942942 -2.309235 1.863549 0.958206 -1.094342 0.000000 0.000000 0.000000 1.878253 0.948839 -1.077120 2.165572 3.725759 -0.304646 0.000000 0.000000 0.000000 1.878253 0.948839 -1.077120 0.511943 2.340403 -3.391968 -50.648189 6.283254 -48.819505 -179.999827 -68.268233 -179.999855 0.000000 0.000000 0.000000 1.878253 0.948839 -1.077120 2.639988 11.492026 -4.490694 -53.050834 35.590251 80.947160 -179.999472 74.978545 179.999486 0.000000 0.000000 0.000000 
